<svg xmlns="http://www.w3.org/2000/svg" viewBox="0 0 111.81 125.35"><defs><style>.cls-1,.cls-3,.cls-4{fill:#414e89;}.cls-1,.cls-2,.cls-3,.cls-4{stroke:#232a42;}.cls-1,.cls-2,.cls-3,.cls-4,.cls-9{stroke-miterlimit:10;}.cls-1{stroke-width:4px;}.cls-2{fill:#e0e0e0;fill-opacity:0.23;stroke-width:5.62px;}.cls-3{stroke-width:3.23px;}.cls-4{stroke-width:3.24px;}.cls-5{fill:#4c3117;}.cls-6{fill:#2b1b10;}.cls-7{fill:#bfbfbf;}.cls-8{fill:#fff;opacity:0.06;}.cls-9{fill:#40403f;stroke:#000;stroke-width:0.94px;opacity:0.11;}</style></defs><g id="Layer_2" data-name="Layer 2"><g id="Layer_1-2" data-name="Layer 1"><circle class="cls-1" cx="55.91" cy="69.45" r="53.91"/><path class="cls-2" d="M48.66,51.74H63.15A17.91,17.91,0,0,1,81.05,69.65V85.56a8.74,8.74,0,0,1-8.74,8.74H39.5a8.74,8.74,0,0,1-8.74-8.74V69.65A17.91,17.91,0,0,1,48.66,51.74Z"/><line class="cls-1" x1="45.61" y1="109.96" x2="65.62" y2="109.96"/><line class="cls-3" x1="31.67" y1="69.45" x2="4.13" y2="54.38"/><line class="cls-4" x1="107.59" y1="54.09" x2="79.52" y2="69.45"/><path class="cls-5" d="M60,25a8.15,8.15,0,0,1-3.81-1.4,6,6,0,0,1-2.38-6.93,9.27,9.27,0,0,1,1.14-2.25c.83-1.19,1.62-2,2.24-2.83A15.55,15.55,0,0,0,60,6.78,47,47,0,0,0,61.49,0,11.2,11.2,0,0,1,64,11.64,13.26,13.26,0,0,1,61.8,15.4C60.92,16.46,60,17.3,59.36,18c-.32.32-.55.59-.74.79a2.46,2.46,0,0,0-.39.61,3.44,3.44,0,0,0,.17,2.38A25.62,25.62,0,0,0,60,25Z"/><circle class="cls-6" cx="55.91" cy="77.23" r="8.31"/><circle class="cls-7" cx="55.91" cy="81.45" r="2.3"/><rect class="cls-8" x="36.32" y="65.72" width="35.81" height="22.98"/><line class="cls-9" x1="37.8" y1="77.38" x2="45.41" y2="77.38"/><line class="cls-9" x1="37.85" y1="79.38" x2="45.58" y2="79.38"/><line class="cls-9" x1="37.8" y1="81.45" x2="46" y2="81.45"/><line class="cls-9" x1="37.8" y1="83.55" x2="46.96" y2="83.55"/><line class="cls-9" x1="37.8" y1="85.52" x2="48.51" y2="85.52"/></g></g></svg>